<svg width="47" height="48" viewBox="0 0 47 48" fill="none" xmlns="http://www.w3.org/2000/svg">
<path d="M41.0923 32.5023C39.3906 32.5023 38.6364 31.8448 37.5729 30.9166C36.3933 29.9111 34.9236 28.6348 32.1583 28.6348C29.3737 28.6348 27.9233 29.9111 26.7437 30.9166C25.6801 31.8448 24.9066 32.5023 23.2049 32.5023C21.5225 32.5023 20.749 31.8448 19.6854 30.9166C18.5058 29.9111 17.0362 28.6348 14.2709 28.6348C11.4863 28.6348 10.0166 29.9111 8.837 30.9166C7.77343 31.8448 7.01924 32.5023 5.31752 32.5023C4.52467 32.5023 3.86719 33.1598 3.86719 33.9526C3.86719 34.7648 4.52467 35.403 5.31752 35.403C8.10215 35.403 9.55246 34.146 10.7321 33.1211C11.7956 32.1929 12.5692 31.5354 14.2709 31.5354C15.9726 31.5354 16.7268 32.1929 17.7904 33.1211C18.97 34.146 20.4396 35.403 23.2049 35.403C25.9896 35.403 27.4592 34.146 28.6388 33.1211C29.7024 32.1929 30.4566 31.5354 32.1583 31.5354C33.8407 31.5354 34.6142 32.1929 35.6778 33.1211C36.8574 34.146 38.327 35.403 41.0923 35.403C41.8852 35.403 42.5427 34.7648 42.5427 33.9526C42.5427 33.1598 41.8852 32.5023 41.0923 32.5023Z" fill="black"/>
<path d="M41.0923 24.5365C39.3906 24.5365 38.6364 23.8597 37.5729 22.9508C36.3933 21.9259 34.9236 20.6689 32.1583 20.6689C29.3737 20.6689 27.9233 21.9259 26.7437 22.9508C25.6801 23.8597 24.9066 24.5365 23.2049 24.5365C21.5225 24.5365 20.749 23.8597 19.6854 22.9508C18.5058 21.9259 17.0362 20.6689 14.2709 20.6689C11.4863 20.6689 10.0166 21.9259 8.837 22.9508C7.77343 23.8597 7.01924 24.5365 5.31752 24.5365C4.52467 24.5365 3.86719 25.1746 3.86719 25.9868C3.86719 26.7797 4.52467 27.4372 5.31752 27.4372C8.10215 27.4372 9.55246 26.1609 10.7321 25.136C11.7956 24.2271 12.5692 23.5696 14.2709 23.5696C15.9726 23.5696 16.7268 24.2271 17.7904 25.136C18.97 26.1609 20.4396 27.4372 23.2049 27.4372C25.9896 27.4372 27.4592 26.1609 28.6388 25.136C29.7024 24.2271 30.4566 23.5696 32.1583 23.5696C33.8407 23.5696 34.6142 24.2271 35.6778 25.136C36.8574 26.1609 38.327 27.4372 41.0923 27.4372C41.8852 27.4372 42.5427 26.7797 42.5427 25.9868C42.5427 25.1746 41.8852 24.5365 41.0923 24.5365Z" fill="black"/>
<path d="M5.31752 19.5075C8.10215 19.5075 9.55246 18.2312 10.7321 17.2256C11.7956 16.2974 12.5692 15.6399 14.2709 15.6399C15.9726 15.6399 16.7268 16.2974 17.7904 17.2256C18.97 18.2312 20.4396 19.5075 23.2049 19.5075C25.9896 19.5075 27.4592 18.2312 28.6388 17.2256C29.7024 16.2974 30.4566 15.6399 32.1583 15.6399C33.8407 15.6399 34.6142 16.2974 35.6778 17.2256C36.8574 18.2312 38.327 19.5075 41.0923 19.5075C41.8852 19.5075 42.5427 18.85 42.5427 18.0571C42.5427 17.245 41.8852 16.6068 41.0923 16.6068C39.3906 16.6068 38.6364 15.9493 37.5728 15.0211C36.3932 13.9962 34.9236 12.7393 32.1583 12.7393C29.3737 12.7393 27.9233 13.9962 26.7437 15.0211C25.6801 15.9493 24.9066 16.6068 23.2049 16.6068C21.5225 16.6068 20.749 15.9493 19.6854 15.0211C18.5058 13.9962 17.0362 12.7393 14.2709 12.7393C11.4863 12.7393 10.0166 13.9962 8.837 15.0211C7.77342 15.9493 7.01924 16.6068 5.31752 16.6068C4.52467 16.6068 3.86719 17.245 3.86719 18.0571C3.86719 18.85 4.52467 19.5075 5.31752 19.5075Z" fill="black"/>
</svg>
